<?xml version="1.0" standalone="no"?>
<!DOCTYPE svg PUBLIC "-//W3C//DTD SVG 20010904//EN"
 "http://www.w3.org/TR/2001/REC-SVG-20010904/DTD/svg10.dtd">
<svg version="1.0" xmlns="http://www.w3.org/2000/svg"
 width="428.000000pt" height="428.000000pt" viewBox="0 0 428.000000 428.000000"
 preserveAspectRatio="xMidYMid meet">
<metadata>
Created by potrace 1.14, written by Peter Selinger 2001-2017
</metadata>
<g transform="translate(0.000000,428.000000) scale(0.100000,-0.100000)"
fill="#000000" stroke="none">
<path d="M2077 4100 c-38 -17 -85 -37 -105 -46 -21 -9 -46 -20 -57 -24 -11 -5
-51 -22 -90 -39 -38 -16 -77 -31 -85 -33 -8 -2 -18 -7 -21 -11 -3 -5 -12 -10
-20 -11 -8 -2 -32 -11 -54 -21 -22 -9 -98 -42 -170 -72 -71 -30 -148 -63 -170
-72 -46 -21 -198 -85 -205 -87 -3 0 -23 -9 -45 -19 -22 -10 -42 -19 -45 -20
-15 -2 -90 -40 -90 -44 0 -4 15 -12 33 -19 17 -7 40 -18 49 -23 10 -5 25 -9
33 -9 8 0 15 -4 15 -10 0 -5 8 -10 18 -10 10 0 28 -7 40 -16 12 -8 22 -12 22
-8 0 3 6 1 13 -5 8 -6 17 -8 20 -4 4 3 7 1 7 -5 0 -7 3 -11 8 -10 8 1 43 -12
103 -41 23 -11 46 -18 50 -15 5 3 9 1 9 -3 0 -9 57 -33 74 -32 5 0 12 -3 15
-9 3 -5 39 -21 79 -37 46 -18 72 -34 73 -44 0 -9 2 -95 2 -191 l2 -175 568 -3
c312 -1 568 1 568 5 1 5 3 89 4 188 2 99 3 182 4 185 0 3 13 11 29 17 71 32
107 47 112 48 3 0 15 6 28 13 12 7 22 10 22 8 0 -3 20 6 45 20 25 13 45 22 45
18 0 -4 7 -1 15 6 9 7 18 10 21 7 3 -3 5 -77 5 -165 0 -145 -3 -164 -22 -196
-12 -20 -19 -40 -15 -43 15 -16 87 -20 124 -8 l22 7 -23 42 c-22 40 -23 52
-23 216 l1 174 30 16 c17 8 32 17 35 20 3 3 12 6 20 8 8 2 40 14 70 27 30 13
70 29 88 37 17 7 32 15 32 19 0 5 -27 17 -120 56 -19 8 -43 19 -52 24 -10 5
-25 9 -33 9 -8 0 -15 5 -15 10 0 6 -6 10 -14 10 -7 0 -40 12 -72 26 -65 29
-94 41 -109 44 -5 1 -19 7 -30 13 -11 6 -26 12 -34 13 -8 2 -18 9 -22 16 -5 7
-9 9 -9 5 0 -4 -10 -2 -22 5 -13 7 -25 13 -28 14 -8 1 -41 15 -87 36 -47 20
-95 41 -103 43 -3 1 -23 9 -45 19 -22 10 -58 25 -80 33 -22 9 -44 20 -50 25
-5 4 -17 8 -27 8 -10 0 -18 5 -18 12 0 6 -3 9 -6 6 -3 -4 -31 5 -62 19 -139
61 -192 83 -201 83 -3 -1 -37 -14 -74 -30z"/>
<path d="M390 3229 c0 -19 28 -81 56 -125 92 -144 283 -253 531 -303 132 -27
236 -40 453 -56 198 -15 244 -23 325 -60 255 -117 267 -446 22 -590 -26 -15
-47 -24 -47 -20 0 4 -7 2 -15 -5 -8 -6 -19 -9 -25 -5 -5 3 -10 2 -10 -4 0 -7
-30 -9 -83 -7 -63 2 -96 10 -141 30 -98 45 -194 159 -212 251 -3 19 -10 35
-16 35 -5 0 -7 -4 -4 -8 3 -5 6 -26 7 -48 1 -21 5 -43 8 -49 3 -5 6 -16 7 -23
4 -24 47 -104 70 -130 54 -60 78 -82 91 -82 7 0 13 -4 13 -10 0 -5 5 -10 12
-10 6 0 20 -8 31 -17 15 -13 18 -14 12 -3 -7 12 -4 11 11 -2 10 -9 37 -19 59
-23 50 -9 163 -9 193 -1 12 3 30 8 40 10 21 5 80 32 107 49 11 6 46 38 78 69
86 87 130 194 128 312 -1 72 -2 77 -16 131 -21 80 -93 177 -173 232 -133 92
-197 106 -517 118 -207 8 -383 20 -438 31 -12 2 -38 7 -57 10 -19 3 -51 10
-70 16 -19 6 -41 12 -50 13 -16 2 -36 9 -87 31 -17 8 -34 14 -37 14 -13 0
-117 70 -153 103 -19 17 -51 54 -69 82 -19 27 -34 47 -34 44z"/>
<path d="M3902 3218 c-7 -7 -12 -18 -12 -25 0 -23 -120 -132 -187 -169 -67
-38 -181 -78 -268 -95 -48 -10 -69 -13 -160 -24 -55 -6 -182 -14 -355 -20
-206 -8 -257 -13 -324 -30 -267 -69 -421 -291 -371 -536 29 -143 113 -255 239
-317 70 -35 107 -43 191 -45 100 -1 160 16 243 71 98 64 170 181 177 289 l5
58 -18 -51 c-9 -28 -25 -62 -34 -77 -10 -14 -18 -30 -18 -34 0 -24 -144 -134
-180 -138 -3 0 -11 -4 -17 -8 -7 -5 -17 -5 -23 -2 -5 3 -10 2 -10 -3 0 -10
-139 -13 -155 -4 -5 4 -16 7 -23 8 -7 2 -34 12 -58 24 -160 74 -234 275 -161
431 34 71 80 117 159 157 84 42 138 53 338 67 36 3 90 7 120 10 30 3 78 8 105
10 115 12 229 33 343 65 226 63 401 200 456 358 16 46 16 48 -2 30z"/>
<path d="M1495 2616 c-44 -20 -115 -94 -115 -121 0 -8 -3 -15 -7 -15 -12 0
-20 -112 -11 -150 18 -74 69 -137 143 -174 91 -46 213 -24 289 50 76 75 95
203 45 299 -25 50 -52 72 -42 36 8 -30 -32 -104 -66 -124 -39 -23 -99 -28
-137 -12 -37 15 -79 69 -87 109 -6 33 10 98 27 108 18 12 -7 8 -39 -6z"/>
<path d="M2778 2622 c7 -5 14 -23 15 -40 1 -18 6 -32 10 -32 4 0 3 -8 -2 -19
-6 -10 -8 -21 -5 -24 9 -9 -35 -76 -62 -94 -48 -31 -144 -19 -184 25 -22 24
-40 69 -40 99 0 68 -67 -62 -71 -138 -5 -101 55 -200 148 -245 54 -26 157 -27
211 -2 70 31 132 105 149 178 6 25 5 90 -3 123 -12 56 -74 135 -126 163 -30
15 -63 20 -40 6z"/>
<path d="M3236 2261 c-3 -5 -8 -26 -10 -47 -2 -22 -6 -46 -9 -54 -3 -8 -8 -28
-11 -45 -9 -56 -17 -90 -27 -121 -5 -17 -11 -40 -14 -50 -5 -23 -43 -142 -54
-169 -5 -11 -14 -33 -21 -50 -8 -16 -13 -35 -12 -41 1 -6 -5 -17 -13 -24 -8
-7 -15 -19 -15 -26 0 -19 -90 -197 -104 -206 -6 -4 -8 -8 -4 -8 14 0 -168
-274 -212 -321 -8 -8 -31 -35 -52 -60 -38 -46 -184 -191 -253 -251 -49 -43
-222 -171 -253 -187 -19 -10 -28 -8 -70 21 -165 113 -333 259 -446 388 -116
132 -157 186 -149 194 3 3 2 6 -4 6 -13 0 -114 151 -129 193 -3 9 -10 17 -14
17 -7 0 -29 50 -29 66 0 2 -7 12 -16 20 -8 9 -13 19 -10 24 3 5 2 10 -2 12 -5
1 -19 28 -32 58 -13 30 -32 73 -42 95 -27 60 -107 303 -102 309 3 2 0 13 -5
23 -6 10 -13 36 -17 58 -8 48 -13 70 -15 70 -1 0 -3 14 -4 30 -1 17 -5 36 -9
43 -5 6 -5 17 -2 22 3 6 -3 10 -14 10 -12 0 -19 -5 -16 -12 2 -7 7 -56 10
-108 3 -52 7 -108 10 -125 2 -16 6 -46 9 -65 3 -19 7 -44 9 -55 2 -11 7 -36
11 -55 11 -62 17 -85 42 -175 9 -33 16 -66 17 -72 0 -7 4 -13 9 -13 5 0 7 -3
5 -7 -3 -5 0 -19 6 -33 5 -14 12 -31 13 -37 2 -7 6 -19 8 -25 1 -7 10 -30 20
-50 9 -21 16 -39 16 -41 0 -3 10 -26 22 -53 11 -27 20 -50 20 -51 -1 -2 8 -20
19 -40 31 -55 90 -164 103 -190 6 -13 14 -23 19 -23 4 0 7 -4 7 -9 0 -14 52
-91 62 -91 4 0 8 -5 8 -11 0 -10 44 -75 64 -94 6 -5 24 -28 40 -50 51 -70 267
-278 366 -353 52 -40 106 -81 120 -92 14 -11 29 -20 33 -20 5 0 15 -7 23 -15
13 -13 20 -11 57 13 115 74 257 191 378 312 85 85 218 242 241 283 6 12 16 27
23 33 6 7 31 45 55 85 25 41 47 76 50 79 11 10 105 205 103 212 -2 5 2 8 8 8
5 0 7 5 4 10 -3 6 -1 10 5 10 6 0 8 5 4 11 -3 6 -2 14 3 18 6 3 27 56 48 116
20 61 40 117 43 125 3 8 6 20 7 25 2 6 10 37 19 70 9 33 18 69 20 80 2 11 7
36 11 55 9 47 16 89 18 123 1 15 4 27 7 27 3 0 6 17 7 38 4 99 10 159 17 170
4 7 3 12 -3 12 -5 0 -8 11 -5 24 4 25 -10 44 -20 27z"/>
<path d="M2056 2041 l-88 -90 89 -180 c48 -99 91 -180 95 -181 4 0 47 81 97
180 l91 180 -89 90 c-49 49 -93 90 -98 90 -4 0 -48 -40 -97 -89z"/>
<path d="M1587 1470 c4 -8 8 -17 9 -20 5 -26 73 -171 94 -200 12 -17 19 -30
16 -30 -6 0 78 -121 116 -166 59 -71 171 -176 246 -232 l84 -62 45 31 c192
132 338 297 450 509 22 41 40 77 41 80 0 3 8 22 17 44 20 47 13 58 -12 20 -10
-16 -26 -37 -35 -46 -10 -10 -18 -23 -18 -30 0 -6 -3 -8 -7 -5 -3 4 -14 -4
-23 -18 -18 -28 -147 -162 -201 -210 -70 -62 -240 -185 -256 -185 -30 0 -245
170 -343 271 -80 83 -135 143 -152 169 -20 31 -82 100 -71 80z"/>
<path d="M1179 628 c-46 -15 -52 -44 -52 -215 1 -87 2 -168 2 -179 2 -37 33
-64 77 -70 37 -4 45 -1 66 25 21 24 25 39 24 85 -1 31 3 56 7 56 5 0 5 4 2 10
-3 5 -7 63 -7 127 -2 110 -4 120 -25 141 -13 12 -27 22 -31 23 -4 0 -14 2 -22
3 -8 2 -27 -1 -41 -6z"/>
<path d="M1392 623 c-41 -20 -48 -47 -46 -185 2 -121 11 -150 55 -168 53 -22
121 20 115 71 -2 16 1 29 7 29 6 0 6 5 1 13 -11 14 -11 67 -1 84 4 6 3 14 -2
17 -6 4 -6 18 -1 36 5 17 5 30 1 30 -4 0 -7 10 -8 23 -2 25 -43 62 -71 64 -10
1 -32 -6 -50 -14z"/>
<path d="M2838 628 c-40 -17 -48 -47 -48 -188 l0 -128 31 -26 c17 -14 41 -26
53 -26 28 0 82 40 81 60 -1 8 2 25 7 38 4 13 4 22 -3 22 -6 0 -7 5 -3 11 9 15
11 120 1 126 -4 2 -3 12 3 22 6 12 5 22 -2 29 -7 7 -9 12 -5 12 4 0 -2 11 -15
24 -28 30 -64 38 -100 24z"/>
<path d="M3063 629 c-47 -17 -53 -44 -54 -227 -1 -173 4 -202 40 -229 26 -19
92 -9 112 18 9 13 15 27 13 31 -2 3 -1 9 3 11 10 6 9 59 -1 75 -4 7 -4 12 1
12 10 0 9 52 -1 68 -4 7 -4 12 1 12 6 0 7 119 1 177 -4 37 -73 68 -115 52z"/>
<path d="M1630 531 c-48 -20 -57 -40 -59 -132 -2 -64 1 -89 10 -89 7 0 9 -3 6
-7 -11 -10 32 -35 66 -39 59 -7 89 38 91 134 0 35 -2 66 -7 69 -4 2 -5 8 -2
12 7 12 -37 49 -65 54 -14 2 -32 2 -40 -2z"/>
<path d="M2619 528 c-38 -13 -55 -55 -52 -130 1 -34 3 -70 5 -79 12 -57 103
-74 143 -27 20 23 23 36 21 112 -1 73 -4 88 -23 105 -26 25 -59 31 -94 19z"/>
</g>
</svg>
