<?xml version="1.0" standalone="no"?>
<!DOCTYPE svg PUBLIC "-//W3C//DTD SVG 20010904//EN"
 "http://www.w3.org/TR/2001/REC-SVG-20010904/DTD/svg10.dtd">
<svg version="1.0" xmlns="http://www.w3.org/2000/svg"
 width="279.000000pt" height="90.000000pt" viewBox="0 0 279.000000 90.000000"
 preserveAspectRatio="xMidYMid meet">

<g transform="translate(0.000000,90.000000) scale(0.100000,-0.100000)"
fill="#000000" stroke="none">
<path d="M130 853 c0 -11 177 -106 190 -101 6 2 -34 27 -90 56 -55 30 -100 50
-100 45z"/>
<path d="M420 795 l0 -65 -145 0 -145 0 0 -35 0 -35 145 0 145 0 0 -72 c0 -60
-4 -76 -21 -95 -17 -17 -19 -26 -11 -36 7 -8 9 -17 5 -20 -15 -15 24 -5 52 13
17 11 47 20 70 20 55 0 65 9 69 62 3 48 4 48 -76 86 -5 2 -8 -19 -8 -47 0 -28
-4 -51 -10 -51 -6 0 -10 30 -10 70 l0 69 138 3 137 3 3 33 3 32 -140 0 -141 0
0 65 0 65 -30 0 -30 0 0 -65z"/>
<path d="M615 805 c-104 -57 -117 -77 -17 -26 94 48 148 81 132 81 -8 0 -60
-25 -115 -55z"/>
<path d="M330 805 c0 -2 14 -11 30 -20 29 -15 30 -15 30 5 0 16 -7 20 -30 20
-16 0 -30 -2 -30 -5z"/>
<path d="M500 790 c0 -24 3 -24 40 -5 39 20 38 25 -5 25 -28 0 -35 -4 -35 -20z"/>
<path d="M180 770 c0 -17 7 -20 43 -20 l42 1 -35 19 c-45 24 -50 24 -50 0z"/>
<path d="M670 770 l-35 -19 38 -1 c30 0 37 3 37 20 0 11 -1 20 -2 20 -2 -1
-19 -9 -38 -20z"/>
<path d="M1028 723 c15 -6 17 -205 2 -234 -10 -17 -7 -19 22 -19 28 0 30 1 15
13 -15 10 -17 27 -15 112 l3 100 90 -110 c81 -99 90 -107 93 -83 3 21 -15 48
-79 127 -73 89 -87 101 -114 100 -16 0 -24 -3 -17 -6z"/>
<path d="M1216 722 c6 -4 13 -13 15 -20 3 -9 9 -6 21 8 17 19 17 20 -15 20
-17 0 -27 -4 -21 -8z"/>
<path d="M1348 614 c2 -78 -1 -120 -9 -130 -10 -12 -3 -14 42 -13 43 0 49 2
32 9 -20 8 -23 17 -23 65 0 54 0 55 30 55 22 0 33 -7 44 -27 15 -27 15 -27 15
32 1 55 0 58 -12 35 -9 -18 -22 -26 -46 -28 l-33 -3 4 60 c3 59 2 61 -22 61
l-25 0 3 -116z"/>
<path d="M1470 723 c8 -3 25 -15 38 -26 l23 -21 -9 24 c-7 18 -18 26 -38 27
-16 1 -22 0 -14 -4z"/>
<path d="M1567 722 c7 -5 31 -59 54 -122 22 -63 42 -116 44 -118 2 -2 8 5 13
15 8 14 2 43 -24 117 -19 54 -31 102 -28 107 3 5 -12 9 -33 9 -22 0 -33 -4
-26 -8z"/>
<path d="M1704 714 c20 -19 30 -59 20 -75 -4 -7 -3 -9 4 -5 6 4 20 -24 37 -74
15 -44 29 -80 31 -80 12 0 24 53 14 65 -5 6 -21 47 -35 90 -21 62 -23 80 -13
86 8 6 -4 9 -30 9 -39 0 -42 -1 -28 -16z"/>
<path d="M1858 704 c4 -24 6 -25 15 -8 6 11 15 22 21 26 6 4 -1 8 -15 8 -23 0
-26 -3 -21 -26z"/>
<path d="M1916 704 c-4 -15 -5 -29 -1 -32 3 -3 5 0 5 6 0 21 32 42 66 42 l34
0 0 -115 c0 -98 -2 -115 -17 -124 -14 -8 -7 -10 32 -11 38 0 46 3 37 12 -8 8
-12 50 -12 125 l0 113 34 0 c26 0 39 -7 54 -27 l19 -26 -5 31 -4 32 -118 0
-118 0 -6 -26z"/>
<path d="M2238 707 c-35 -29 -48 -58 -48 -104 0 -47 29 -97 69 -118 43 -22 47
-19 12 10 -51 44 -55 162 -6 211 30 30 9 31 -27 1z"/>
<path d="M2353 719 c63 -36 60 -188 -4 -233 -30 -20 -17 -21 22 -1 61 32 87
121 54 185 -17 32 -52 60 -75 60 -12 -1 -11 -3 3 -11z"/>
<path d="M2512 710 c7 -11 16 -20 19 -20 4 0 44 -47 89 -105 46 -58 87 -105
92 -105 4 0 8 14 8 30 0 17 -4 30 -8 30 -5 0 -42 42 -83 94 -61 78 -79 95
-102 95 -25 1 -26 -1 -15 -19z"/>
<path d="M2693 719 c9 -5 18 -22 18 -37 2 -27 2 -27 6 -2 3 14 10 31 15 38 8
9 3 12 -23 12 -28 -1 -31 -2 -16 -11z"/>
<path d="M1851 654 c0 -11 3 -14 6 -6 3 7 2 16 -1 19 -3 4 -6 -2 -5 -13z"/>
<path d="M2712 620 c0 -19 2 -27 5 -17 2 9 2 25 0 35 -3 9 -5 1 -5 -18z"/>
<path d="M187 633 c-4 -3 -7 -15 -7 -25 0 -18 2 -18 40 2 22 11 40 23 40 25 0
8 -66 6 -73 -2z"/>
<path d="M250 582 c-64 -34 -98 -58 -87 -60 14 -3 17 -15 17 -69 0 -79 18
-121 74 -169 44 -38 165 -104 191 -104 9 0 47 16 86 36 66 33 80 49 42 49 -9
0 -18 5 -20 11 -2 7 12 9 40 7 44 -4 44 -4 39 23 -5 27 -32 86 -32 71 0 -4
-16 0 -36 8 -35 15 -38 14 -62 -10 -13 -14 -32 -25 -41 -25 -20 -1 -51 -23
-51 -38 0 -5 12 -13 26 -16 34 -9 28 -38 -8 -42 -54 -5 -73 101 -22 125 35 16
31 39 -6 33 -25 -4 -30 0 -36 23 -4 16 -2 36 4 46 8 12 8 20 2 24 -15 9 -12
42 6 59 8 9 14 24 12 35 -3 16 -13 13 -88 -30 -47 -26 -92 -48 -100 -48 -23
-1 14 25 103 70 42 22 77 41 77 44 0 13 -34 -1 -130 -53z m70 -68 c0 -14 -21
-19 -33 -7 -9 9 13 34 24 27 5 -3 9 -12 9 -20z m-80 -84 c0 -5 -5 -12 -11 -16
-14 -8 -33 11 -25 25 7 11 36 4 36 -9z m110 -34 c0 -11 -19 -15 -25 -6 -3 5 1
10 9 10 9 0 16 -2 16 -4z m209 -68 c-8 -14 -14 -18 -17 -10 -4 13 17 46 25 38
3 -2 -1 -15 -8 -28z m-239 -34 c0 -14 -21 -19 -33 -7 -9 9 13 34 24 27 5 -3 9
-12 9 -20z"/>
<path d="M584 625 c11 -8 27 -15 35 -15 13 1 12 4 -3 15 -11 8 -27 15 -35 15
-13 -1 -12 -4 3 -15z"/>
<path d="M1831 594 c0 -11 3 -14 6 -6 3 7 2 16 -1 19 -3 4 -6 -2 -5 -13z"/>
<path d="M693 585 c0 -8 4 -12 9 -9 5 3 6 10 3 15 -9 13 -12 11 -12 -6z"/>
<path d="M640 560 c0 -5 5 -10 11 -10 5 0 7 5 4 10 -3 6 -8 10 -11 10 -2 0 -4
-4 -4 -10z"/>
<path d="M715 530 c-3 -5 -1 -10 4 -10 6 0 11 5 11 10 0 6 -2 10 -4 10 -3 0
-8 -4 -11 -10z"/>
<path d="M2511 520 c0 -15 -6 -31 -13 -38 -9 -9 -5 -12 22 -12 31 0 32 1 18
18 -9 9 -18 26 -21 37 -4 16 -5 15 -6 -5z"/>
<path d="M678 523 c7 -3 16 -2 19 1 4 3 -2 6 -13 5 -11 0 -14 -3 -6 -6z"/>
<path d="M1510 505 c-12 -13 -32 -26 -44 -28 -11 -2 -4 -5 17 -6 32 -1 39 3
48 25 13 36 7 39 -21 9z"/>
<path d="M713 487 c9 -8 17 -18 17 -22 0 -4 -8 -14 -17 -21 -17 -13 -17 -13 0
-14 36 0 33 58 -4 68 -9 2 -8 -1 4 -11z"/>
<path d="M610 468 c0 -9 -8 -19 -17 -21 -13 -3 -14 -5 -3 -6 8 0 22 4 30 9 12
7 12 12 2 22 -9 9 -12 9 -12 -4z"/>
<path d="M725 390 c-4 -6 1 -10 9 -10 9 0 16 -4 16 -10 0 -5 -7 -10 -16 -10
-13 0 -14 -3 -5 -13 6 -8 9 -16 7 -18 -2 -2 2 -10 10 -17 11 -10 15 -8 24 7
17 33 -26 101 -45 71z"/>
<path d="M681 362 c-7 -13 -11 -28 -8 -35 2 -7 9 -2 16 11 7 13 11 28 8 35 -2
7 -9 2 -16 -11z"/>
<path d="M280 211 c0 -6 14 -11 30 -11 22 0 33 -6 40 -22 6 -16 9 -18 9 -7 1
21 -16 35 -52 44 -17 5 -27 3 -27 -4z"/>
<path d="M558 204 c-30 -16 -33 -21 -18 -44 8 -12 10 -11 10 7 0 26 8 32 48
35 17 1 28 6 26 10 -8 12 -36 9 -66 -8z"/>
<path d="M220 190 c-8 -5 -10 -10 -5 -10 6 0 17 5 25 10 8 5 11 10 5 10 -5 0
-17 -5 -25 -10z"/>
<path d="M52 168 c-7 -7 -12 -26 -11 -42 0 -17 3 -25 6 -18 2 6 14 12 24 12
11 0 18 4 14 9 -3 6 3 14 12 20 16 9 16 12 3 21 -20 13 -33 13 -48 -2z"/>
<path d="M690 176 c0 -2 7 -7 16 -10 8 -3 12 -2 9 4 -6 10 -25 14 -25 6z"/>
<path d="M785 171 c-3 -6 3 -14 12 -20 16 -9 16 -12 3 -21 -11 -7 -6 -10 23
-10 29 0 37 4 37 18 0 10 -5 23 -12 30 -14 14 -54 16 -63 3z"/>
<path d="M340 139 c0 -5 -10 -9 -22 -7 -16 2 -23 -3 -25 -17 -1 -11 0 -15 3
-8 4 8 13 9 34 1 16 -5 37 -8 47 -5 11 3 8 5 -10 6 -24 1 -27 4 -22 21 3 11 4
20 1 20 -3 0 -6 -5 -6 -11z"/>
<path d="M757 139 c7 -7 15 -10 18 -7 3 3 -2 9 -12 12 -14 6 -15 5 -6 -5z"/>
<path d="M568 133 c-10 -2 -18 -9 -18 -14 0 -5 -7 -9 -17 -9 -9 0 -14 -3 -11
-6 11 -11 78 8 78 22 0 14 -3 15 -32 7z"/>
<path d="M657 109 c7 -7 15 -10 18 -7 3 3 -2 9 -12 12 -14 6 -15 5 -6 -5z"/>
<path d="M592 72 c-11 -25 -11 -25 4 -10 9 9 15 21 13 27 -2 6 -10 -2 -17 -17z"/>
<path d="M826 63 c-6 -14 -5 -15 5 -6 7 7 10 15 7 18 -3 3 -9 -2 -12 -12z"/>
<path d="M60 61 c0 -6 4 -13 10 -16 6 -3 7 1 4 9 -7 18 -14 21 -14 7z"/>
<path d="M130 50 c-9 -6 -10 -10 -3 -10 6 0 15 5 18 10 8 12 4 12 -15 0z"/>
<path d="M348 43 c7 -3 16 -2 19 1 4 3 -2 6 -13 5 -11 0 -14 -3 -6 -6z"/>
<path d="M528 43 c6 -2 18 -2 25 0 6 3 1 5 -13 5 -14 0 -19 -2 -12 -5z"/>
</g>
</svg>
