<svg xmlns="http://www.w3.org/2000/svg" xmlns:xlink="http://www.w3.org/1999/xlink" width="500" height="500" preserveAspectRatio="xMidYMid meet" version="1.0" viewBox="0 0 375 375" zoomAndPan="magnify"><defs><clipPath id="28fa7e5149"><path d="M 188 137 L 229.925781 137 L 229.925781 170 L 188 170 Z M 188 137" clip-rule="nonzero"/></clipPath><clipPath id="d5976c0fc4"><path d="M 144.921875 137 L 187 137 L 187 170 L 144.921875 170 Z M 144.921875 137" clip-rule="nonzero"/></clipPath><clipPath id="bc55f67e90"><path d="M 157 116.804688 L 218 116.804688 L 218 146 L 157 146 Z M 157 116.804688" clip-rule="nonzero"/></clipPath><clipPath id="91e3011f42"><path d="M 162 201 L 167 201 L 167 212.523438 L 162 212.523438 Z M 162 201" clip-rule="nonzero"/></clipPath><clipPath id="345d8cedeb"><path d="M 207 201 L 213 201 L 213 212.523438 L 207 212.523438 Z M 207 201" clip-rule="nonzero"/></clipPath></defs><path fill="#0a95b4" fill-opacity="1" fill-rule="nonzero" d="M 213.351562 161.765625 C 211.882812 171.769531 206.550781 189.855469 187.425781 202.167969 C 168.300781 189.855469 162.96875 171.769531 161.496094 161.765625 L 160.953125 161.765625 C 160.953125 161.765625 159.746094 191.679688 187.425781 209.5 C 215.101562 191.679688 213.894531 161.765625 213.894531 161.765625 L 213.351562 161.765625"/><path fill="#0a95b4" fill-opacity="1" fill-rule="nonzero" d="M 190.054688 191.785156 C 189.230469 192.429688 188.355469 193.050781 187.425781 193.652344 C 186.492188 193.050781 185.617188 192.429688 184.792969 191.785156 C 179.96875 188.238281 176.328125 184.246094 173.585938 180.210938 C 175.476562 185.886719 179.382812 192.796875 187.425781 197.976562 C 195.46875 192.796875 199.371094 185.886719 201.261719 180.210938 C 198.519531 184.246094 194.878906 188.238281 190.054688 191.785156"/><path fill="#0a95b4" fill-opacity="1" fill-rule="nonzero" d="M 187.425781 178.300781 L 182.972656 169.351562 L 187.425781 164.875 L 191.878906 169.351562 L 187.425781 178.300781"/><g clip-path="url(#28fa7e5149)"><path fill="#0a95b4" fill-opacity="1" fill-rule="nonzero" d="M 209.582031 158.621094 C 209.582031 158.621094 209.597656 158.933594 209.628906 159.511719 C 209.628906 159.800781 209.597656 160.164062 209.574219 160.601562 C 209.503906 161.019531 209.449219 161.519531 209.277344 162.054688 C 208.980469 163.128906 208.402344 164.414062 207.375 165.65625 C 207.257812 165.820312 207.109375 165.960938 206.96875 166.113281 C 206.820312 166.261719 206.675781 166.417969 206.519531 166.5625 C 206.355469 166.703125 206.191406 166.847656 206.023438 166.988281 C 205.9375 167.058594 205.855469 167.136719 205.765625 167.203125 C 205.671875 167.265625 205.578125 167.332031 205.484375 167.398438 C 204.75 167.945312 203.867188 168.375 202.914062 168.71875 C 202.667969 168.792969 202.421875 168.871094 202.171875 168.949219 C 201.917969 169 201.660156 169.054688 201.398438 169.109375 C 201.136719 169.171875 200.871094 169.1875 200.597656 169.214844 C 200.464844 169.230469 200.328125 169.242188 200.191406 169.253906 L 200.085938 169.265625 L 200.0625 169.269531 C 200.105469 169.269531 199.972656 169.265625 199.976562 169.265625 L 199.933594 169.269531 L 199.746094 169.269531 C 199.496094 169.269531 199.25 169.273438 198.992188 169.265625 C 198.695312 169.238281 198.394531 169.207031 198.089844 169.171875 L 197.863281 169.140625 L 197.648438 169.097656 C 197.507812 169.066406 197.363281 169.035156 197.21875 169.003906 C 197.074219 168.972656 196.929688 168.945312 196.785156 168.90625 C 196.644531 168.859375 196.5 168.8125 196.359375 168.769531 C 195.214844 168.40625 194.097656 167.828125 193.085938 167.050781 C 192.074219 166.273438 191.1875 165.28125 190.484375 164.140625 C 189.777344 163.003906 189.277344 161.699219 189.03125 160.328125 C 188.972656 159.984375 188.90625 159.640625 188.894531 159.292969 L 188.859375 158.765625 L 188.851562 158.636719 L 188.847656 158.570312 L 188.84375 158.535156 C 188.84375 158.542969 188.847656 158.351562 188.847656 158.417969 L 188.855469 158.195312 L 188.871094 157.742188 L 188.878906 157.519531 L 188.878906 157.460938 L 188.890625 157.390625 L 188.90625 157.246094 L 188.988281 156.667969 C 189.019531 156.480469 189.039062 156.277344 189.089844 156.109375 C 189.394531 154.691406 190.007812 153.316406 190.882812 152.148438 C 191.753906 150.976562 192.851562 150.003906 194.046875 149.246094 C 195.25 148.492188 196.554688 147.953125 197.890625 147.601562 C 198.226562 147.523438 198.558594 147.425781 198.898438 147.371094 L 199.402344 147.289062 L 199.65625 147.25 L 199.78125 147.230469 L 199.816406 147.222656 L 199.867188 147.21875 L 199.921875 147.210938 L 200.375 147.164062 C 200.523438 147.148438 200.675781 147.132812 200.84375 147.121094 C 201.160156 147.09375 201.492188 147.0625 201.796875 147.046875 C 202.414062 147.003906 203.027344 146.96875 203.628906 146.941406 C 204.230469 146.921875 204.828125 146.902344 205.421875 146.878906 C 206.597656 146.839844 207.757812 146.796875 208.894531 146.757812 C 211.164062 146.664062 213.332031 146.527344 215.359375 146.269531 C 217.386719 146.011719 219.277344 145.640625 220.953125 145.109375 C 221.800781 144.863281 222.574219 144.542969 223.3125 144.222656 C 223.667969 144.050781 224.023438 143.882812 224.355469 143.703125 C 224.519531 143.605469 224.679688 143.511719 224.835938 143.421875 C 224.917969 143.375 224.996094 143.328125 225.074219 143.285156 C 225.15625 143.238281 225.226562 143.183594 225.300781 143.136719 C 226.5 142.359375 227.425781 141.492188 228.105469 140.695312 C 228.761719 139.882812 229.230469 139.175781 229.5 138.671875 C 229.773438 138.164062 229.917969 137.890625 229.917969 137.890625 C 229.917969 137.890625 229.84375 138.1875 229.683594 138.753906 C 229.515625 139.308594 229.21875 140.125 228.679688 141.101562 C 228.128906 142.066406 227.296875 143.167969 226.121094 144.21875 C 225.980469 144.355469 225.824219 144.480469 225.667969 144.605469 C 225.507812 144.730469 225.34375 144.859375 225.179688 144.988281 C 224.847656 145.238281 224.484375 145.472656 224.121094 145.722656 C 223.371094 146.179688 222.554688 146.632812 221.675781 147.015625 C 220.800781 147.421875 219.859375 147.753906 218.878906 148.074219 C 218.386719 148.226562 217.882812 148.378906 217.371094 148.503906 C 216.859375 148.644531 216.335938 148.761719 215.804688 148.878906 C 213.683594 149.339844 211.425781 149.652344 209.109375 149.875 C 207.953125 149.992188 206.777344 150.078125 205.597656 150.167969 C 205.011719 150.214844 204.421875 150.257812 203.828125 150.304688 C 203.242188 150.347656 202.652344 150.394531 202.070312 150.449219 C 201.773438 150.472656 201.503906 150.507812 201.21875 150.539062 C 201.082031 150.550781 200.933594 150.570312 200.78125 150.589844 L 200.332031 150.648438 C 200.074219 150.695312 199.816406 150.742188 199.558594 150.789062 C 199.296875 150.835938 199.042969 150.914062 198.78125 150.972656 C 197.757812 151.253906 196.78125 151.675781 195.90625 152.226562 C 194.140625 153.316406 192.851562 154.972656 192.394531 156.867188 C 192.351562 156.992188 192.351562 157.089844 192.328125 157.199219 L 192.265625 157.519531 L 192.242188 157.636719 L 192.238281 157.695312 L 192.222656 157.917969 L 192.195312 158.367188 L 192.175781 158.59375 C 192.175781 158.679688 192.179688 158.507812 192.179688 158.535156 L 192.179688 158.601562 L 192.183594 158.695312 L 192.195312 159.066406 C 192.1875 159.316406 192.230469 159.558594 192.257812 159.804688 C 192.390625 160.777344 192.707031 161.714844 193.15625 162.570312 C 193.609375 163.421875 194.21875 164.175781 194.914062 164.8125 C 195.613281 165.449219 196.417969 165.929688 197.253906 166.285156 C 197.355469 166.332031 197.460938 166.375 197.566406 166.421875 C 197.671875 166.460938 197.777344 166.488281 197.886719 166.523438 C 197.992188 166.558594 198.101562 166.59375 198.207031 166.628906 L 198.367188 166.679688 L 198.519531 166.710938 C 198.71875 166.753906 198.921875 166.796875 199.121094 166.84375 C 199.371094 166.871094 199.617188 166.898438 199.863281 166.921875 L 200.050781 166.941406 L 200.09375 166.945312 C 200.117188 166.949219 200 166.945312 200.058594 166.945312 L 200.160156 166.945312 C 200.269531 166.949219 200.375 166.949219 200.484375 166.949219 C 200.699219 166.949219 200.914062 166.964844 201.125 166.933594 C 201.335938 166.914062 201.546875 166.898438 201.753906 166.878906 C 201.960938 166.839844 202.160156 166.800781 202.363281 166.761719 C 203.164062 166.585938 203.929688 166.324219 204.597656 165.957031 C 204.683594 165.910156 204.769531 165.871094 204.855469 165.828125 C 204.941406 165.785156 205.015625 165.726562 205.097656 165.679688 C 205.253906 165.578125 205.414062 165.476562 205.566406 165.378906 C 205.714844 165.273438 205.855469 165.160156 206 165.050781 C 206.140625 164.941406 206.289062 164.839844 206.410156 164.714844 C 207.453125 163.785156 208.167969 162.738281 208.625 161.804688 C 208.871094 161.34375 209.007812 160.894531 209.164062 160.511719 C 209.269531 160.121094 209.371094 159.78125 209.429688 159.5 C 209.53125 158.925781 209.582031 158.621094 209.582031 158.621094"/></g><path fill="#0a95b4" fill-opacity="1" fill-rule="nonzero" d="M 202.070312 152.855469 C 202.628906 153.480469 202.96875 154.300781 202.96875 155.207031 C 202.96875 157.152344 201.398438 158.730469 199.460938 158.730469 C 197.527344 158.730469 195.957031 157.152344 195.957031 155.207031 C 195.957031 154.941406 195.988281 154.683594 196.042969 154.433594 C 194.921875 155.558594 194.230469 157.109375 194.230469 158.820312 C 194.230469 162.246094 196.996094 165.019531 200.398438 165.019531 C 203.804688 165.019531 206.566406 162.246094 206.566406 158.820312 C 206.566406 155.980469 204.664062 153.585938 202.070312 152.855469"/><g clip-path="url(#d5976c0fc4)"><path fill="#0a95b4" fill-opacity="1" fill-rule="nonzero" d="M 165.265625 158.621094 C 165.265625 158.621094 165.25 158.933594 165.21875 159.511719 C 165.21875 159.800781 165.25 160.164062 165.277344 160.601562 C 165.347656 161.019531 165.398438 161.519531 165.570312 162.054688 C 165.867188 163.128906 166.445312 164.414062 167.472656 165.65625 C 167.59375 165.820312 167.738281 165.960938 167.882812 166.113281 C 168.027344 166.261719 168.171875 166.417969 168.328125 166.5625 C 168.492188 166.703125 168.65625 166.847656 168.824219 166.988281 C 168.910156 167.058594 168.992188 167.136719 169.085938 167.203125 C 169.175781 167.265625 169.269531 167.332031 169.363281 167.398438 C 170.097656 167.945312 170.980469 168.375 171.933594 168.71875 C 172.179688 168.792969 172.425781 168.871094 172.675781 168.949219 C 172.929688 169 173.1875 169.054688 173.449219 169.109375 C 173.710938 169.171875 173.980469 169.1875 174.25 169.214844 C 174.382812 169.230469 174.519531 169.242188 174.660156 169.253906 L 174.761719 169.265625 L 174.789062 169.269531 C 174.742188 169.269531 174.875 169.265625 174.871094 169.265625 L 174.917969 169.269531 L 175.101562 169.269531 C 175.351562 169.269531 175.597656 169.273438 175.855469 169.265625 C 176.152344 169.238281 176.453125 169.207031 176.757812 169.171875 L 176.984375 169.140625 L 177.199219 169.097656 C 177.34375 169.066406 177.484375 169.035156 177.628906 169.003906 C 177.773438 168.972656 177.917969 168.945312 178.0625 168.90625 C 178.207031 168.859375 178.347656 168.8125 178.488281 168.769531 C 179.632812 168.40625 180.753906 167.828125 181.761719 167.050781 C 182.773438 166.273438 183.660156 165.28125 184.363281 164.140625 C 185.070312 163.003906 185.570312 161.699219 185.816406 160.328125 C 185.875 159.984375 185.941406 159.640625 185.953125 159.292969 L 185.988281 158.765625 L 185.996094 158.636719 L 186 158.570312 L 186.003906 158.535156 C 186.003906 158.542969 186 158.351562 186 158.417969 L 185.996094 158.195312 L 185.980469 157.742188 L 185.96875 157.519531 L 185.96875 157.460938 L 185.957031 157.390625 L 185.941406 157.246094 L 185.859375 156.667969 C 185.828125 156.480469 185.808594 156.277344 185.757812 156.109375 C 185.457031 154.691406 184.839844 153.316406 183.964844 152.148438 C 183.09375 150.976562 182 150.003906 180.800781 149.246094 C 179.597656 148.492188 178.292969 147.953125 176.957031 147.601562 C 176.625 147.523438 176.289062 147.425781 175.953125 147.371094 L 175.445312 147.289062 L 175.191406 147.25 L 175.066406 147.230469 L 175.035156 147.222656 L 174.980469 147.21875 L 174.925781 147.210938 L 174.472656 147.164062 C 174.324219 147.148438 174.171875 147.132812 174.007812 147.121094 C 173.6875 147.09375 173.355469 147.0625 173.050781 147.046875 C 172.433594 147.003906 171.824219 146.96875 171.21875 146.941406 C 170.617188 146.921875 170.019531 146.902344 169.425781 146.878906 C 168.25 146.839844 167.09375 146.796875 165.953125 146.757812 C 163.6875 146.664062 161.515625 146.527344 159.488281 146.269531 C 157.460938 146.011719 155.570312 145.640625 153.894531 145.109375 C 153.046875 144.863281 152.273438 144.542969 151.535156 144.222656 C 151.179688 144.050781 150.828125 143.882812 150.492188 143.703125 C 150.332031 143.605469 150.167969 143.511719 150.011719 143.421875 C 149.929688 143.375 149.851562 143.328125 149.773438 143.285156 C 149.695312 143.238281 149.621094 143.183594 149.546875 143.136719 C 148.351562 142.359375 147.425781 141.492188 146.742188 140.695312 C 146.085938 139.882812 145.621094 139.175781 145.347656 138.671875 C 145.074219 138.164062 144.929688 137.890625 144.929688 137.890625 C 144.929688 137.890625 145.003906 138.1875 145.164062 138.753906 C 145.332031 139.308594 145.628906 140.125 146.167969 141.101562 C 146.71875 142.066406 147.550781 143.167969 148.726562 144.21875 C 148.867188 144.355469 149.023438 144.480469 149.183594 144.605469 C 149.339844 144.730469 149.503906 144.859375 149.667969 144.988281 C 150.003906 145.238281 150.363281 145.472656 150.726562 145.722656 C 151.480469 146.179688 152.292969 146.632812 153.171875 147.015625 C 154.046875 147.421875 154.992188 147.753906 155.96875 148.074219 C 156.460938 148.226562 156.964844 148.378906 157.476562 148.503906 C 157.988281 148.644531 158.511719 148.761719 159.042969 148.878906 C 161.164062 149.339844 163.421875 149.652344 165.738281 149.875 C 166.894531 149.992188 168.070312 150.078125 169.25 150.167969 C 169.835938 150.214844 170.425781 150.257812 171.019531 150.304688 C 171.609375 150.347656 172.195312 150.394531 172.777344 150.449219 C 173.078125 150.472656 173.347656 150.507812 173.628906 150.539062 C 173.765625 150.550781 173.914062 150.570312 174.066406 150.589844 L 174.519531 150.648438 C 174.777344 150.695312 175.03125 150.742188 175.289062 150.789062 C 175.554688 150.835938 175.808594 150.914062 176.066406 150.972656 C 177.089844 151.253906 178.070312 151.675781 178.941406 152.226562 C 180.707031 153.316406 181.996094 154.972656 182.453125 156.867188 C 182.496094 156.992188 182.5 157.089844 182.519531 157.199219 L 182.582031 157.519531 L 182.605469 157.636719 L 182.609375 157.695312 L 182.625 157.917969 L 182.65625 158.367188 L 182.671875 158.59375 C 182.675781 158.679688 182.667969 158.507812 182.667969 158.535156 L 182.667969 158.601562 L 182.664062 158.695312 L 182.65625 159.066406 C 182.664062 159.316406 182.617188 159.558594 182.589844 159.804688 C 182.457031 160.777344 182.144531 161.714844 181.691406 162.570312 C 181.238281 163.421875 180.628906 164.175781 179.933594 164.8125 C 179.234375 165.449219 178.429688 165.929688 177.597656 166.285156 C 177.492188 166.332031 177.386719 166.375 177.28125 166.421875 C 177.179688 166.460938 177.070312 166.488281 176.960938 166.523438 C 176.855469 166.558594 176.746094 166.59375 176.640625 166.628906 L 176.480469 166.679688 L 176.332031 166.710938 C 176.128906 166.753906 175.925781 166.796875 175.726562 166.84375 C 175.476562 166.871094 175.230469 166.898438 174.984375 166.921875 L 174.800781 166.941406 L 174.753906 166.945312 C 174.734375 166.949219 174.847656 166.945312 174.789062 166.945312 L 174.6875 166.945312 C 174.582031 166.949219 174.472656 166.949219 174.367188 166.949219 C 174.148438 166.949219 173.933594 166.964844 173.726562 166.933594 C 173.511719 166.914062 173.304688 166.898438 173.09375 166.878906 C 172.890625 166.839844 172.6875 166.800781 172.484375 166.761719 C 171.683594 166.585938 170.917969 166.324219 170.25 165.957031 C 170.164062 165.910156 170.078125 165.871094 169.992188 165.828125 C 169.910156 165.785156 169.832031 165.726562 169.75 165.679688 C 169.59375 165.578125 169.4375 165.476562 169.28125 165.378906 C 169.132812 165.273438 168.992188 165.160156 168.851562 165.050781 C 168.710938 164.941406 168.5625 164.839844 168.441406 164.714844 C 167.394531 163.785156 166.683594 162.738281 166.222656 161.804688 C 165.976562 161.34375 165.839844 160.894531 165.6875 160.511719 C 165.582031 160.121094 165.476562 159.78125 165.417969 159.5 C 165.320312 158.925781 165.265625 158.621094 165.265625 158.621094"/></g><path fill="#0a95b4" fill-opacity="1" fill-rule="nonzero" d="M 172.777344 152.855469 C 172.222656 153.480469 171.878906 154.300781 171.878906 155.207031 C 171.878906 157.152344 173.449219 158.730469 175.386719 158.730469 C 177.320312 158.730469 178.890625 157.152344 178.890625 155.207031 C 178.890625 154.941406 178.859375 154.683594 178.804688 154.433594 C 179.925781 155.558594 180.617188 157.109375 180.617188 158.820312 C 180.617188 162.246094 177.855469 165.019531 174.449219 165.019531 C 171.042969 165.019531 168.28125 162.246094 168.28125 158.820312 C 168.28125 155.980469 170.183594 153.585938 172.777344 152.855469"/><g clip-path="url(#bc55f67e90)"><path fill="#0a95b4" fill-opacity="1" fill-rule="nonzero" d="M 210.414062 132.558594 L 217.292969 129.617188 L 187.425781 116.839844 L 157.554688 129.617188 L 173.753906 136.542969 L 173.753906 145.765625 L 201.09375 145.765625 L 201.09375 136.542969 L 208.929688 133.191406 L 208.929688 141.066406 L 207.78125 143.078125 L 209.671875 143.566406 L 211.5625 143.078125 L 210.414062 141.066406 L 210.414062 132.558594"/></g><g clip-path="url(#91e3011f42)"><path fill="#0a95b4" fill-opacity="1" fill-rule="nonzero" d="M 164.867188 212.460938 C 163.734375 212.460938 162.820312 211.539062 162.820312 210.402344 L 162.820312 203.0625 C 162.820312 201.925781 163.734375 201.003906 164.867188 201.003906 C 166 201.003906 166.914062 201.925781 166.914062 203.0625 L 166.914062 210.402344 C 166.914062 211.539062 166 212.460938 164.867188 212.460938"/></g><path fill="#0a95b4" fill-opacity="1" fill-rule="nonzero" d="M 170.144531 210.019531 C 169.015625 210.019531 168.097656 209.097656 168.097656 207.960938 L 168.097656 203.0625 C 168.097656 201.925781 169.015625 201.003906 170.144531 201.003906 C 171.277344 201.003906 172.195312 201.925781 172.195312 203.0625 L 172.195312 207.960938 C 172.195312 209.097656 171.277344 210.019531 170.144531 210.019531"/><path fill="#0a95b4" fill-opacity="1" fill-rule="nonzero" d="M 175.5 210.042969 C 174.367188 210.042969 173.449219 209.121094 173.449219 207.984375 L 173.449219 205.476562 C 173.449219 204.339844 174.367188 203.417969 175.5 203.417969 C 176.628906 203.417969 177.546875 204.339844 177.546875 205.476562 L 177.546875 207.984375 C 177.546875 209.121094 176.628906 210.042969 175.5 210.042969"/><g clip-path="url(#345d8cedeb)"><path fill="#0a95b4" fill-opacity="1" fill-rule="nonzero" d="M 209.980469 212.460938 C 211.113281 212.460938 212.03125 211.539062 212.03125 210.402344 L 212.03125 203.0625 C 212.03125 201.925781 211.113281 201.003906 209.980469 201.003906 C 208.847656 201.003906 207.933594 201.925781 207.933594 203.0625 L 207.933594 210.402344 C 207.933594 211.539062 208.847656 212.460938 209.980469 212.460938"/></g><path fill="#0a95b4" fill-opacity="1" fill-rule="nonzero" d="M 204.703125 210.019531 C 205.835938 210.019531 206.75 209.097656 206.75 207.960938 L 206.75 203.0625 C 206.75 201.925781 205.835938 201.003906 204.703125 201.003906 C 203.570312 201.003906 202.65625 201.925781 202.65625 203.0625 L 202.65625 207.960938 C 202.65625 209.097656 203.570312 210.019531 204.703125 210.019531"/><path fill="#0a95b4" fill-opacity="1" fill-rule="nonzero" d="M 199.351562 210.042969 C 200.480469 210.042969 201.398438 209.121094 201.398438 207.984375 L 201.398438 205.476562 C 201.398438 204.339844 200.480469 203.417969 199.351562 203.417969 C 198.21875 203.417969 197.300781 204.339844 197.300781 205.476562 L 197.300781 207.984375 C 197.300781 209.121094 198.21875 210.042969 199.351562 210.042969"/><g fill="#041630" fill-opacity="1"><g><g><path d="M 5.796875 -14.515625 L 0.09375 -14.515625 L 0.09375 -17.21875 L 14.703125 -17.21875 L 14.703125 -14.515625 L 9 -14.515625 L 9 0 L 5.796875 0 Z M 5.796875 -14.515625" transform="translate(107.718037, 239.073998)"/></g></g></g><g fill="#041630" fill-opacity="1"><g><g><path d="M 10.359375 0.25 C 8.597656 0.25 7.015625 -0.128906 5.609375 -0.890625 C 4.203125 -1.660156 3.09375 -2.71875 2.28125 -4.0625 C 1.476562 -5.414062 1.078125 -6.929688 1.078125 -8.609375 C 1.078125 -10.273438 1.476562 -11.785156 2.28125 -13.140625 C 3.09375 -14.492188 4.203125 -15.550781 5.609375 -16.3125 C 7.015625 -17.082031 8.597656 -17.46875 10.359375 -17.46875 C 12.109375 -17.46875 13.6875 -17.082031 15.09375 -16.3125 C 16.507812 -15.550781 17.617188 -14.5 18.421875 -13.15625 C 19.222656 -11.8125 19.625 -10.296875 19.625 -8.609375 C 19.625 -6.921875 19.222656 -5.40625 18.421875 -4.0625 C 17.617188 -2.71875 16.507812 -1.660156 15.09375 -0.890625 C 13.6875 -0.128906 12.109375 0.25 10.359375 0.25 Z M 10.359375 -2.5625 C 11.503906 -2.5625 12.535156 -2.816406 13.453125 -3.328125 C 14.367188 -3.847656 15.085938 -4.570312 15.609375 -5.5 C 16.140625 -6.425781 16.40625 -7.460938 16.40625 -8.609375 C 16.40625 -9.753906 16.140625 -10.789062 15.609375 -11.71875 C 15.085938 -12.644531 14.367188 -13.363281 13.453125 -13.875 C 12.535156 -14.394531 11.503906 -14.65625 10.359375 -14.65625 C 9.203125 -14.65625 8.164062 -14.394531 7.25 -13.875 C 6.332031 -13.363281 5.609375 -12.644531 5.078125 -11.71875 C 4.554688 -10.789062 4.296875 -9.753906 4.296875 -8.609375 C 4.296875 -7.460938 4.554688 -6.425781 5.078125 -5.5 C 5.609375 -4.570312 6.332031 -3.847656 7.25 -3.328125 C 8.164062 -2.816406 9.203125 -2.5625 10.359375 -2.5625 Z M 10.359375 -2.5625" transform="translate(124.168088, 239.073998)"/></g></g></g><g fill="#041630" fill-opacity="1"><g><g><path d="M 9.390625 -17.21875 C 10.890625 -17.21875 12.191406 -16.96875 13.296875 -16.46875 C 14.398438 -15.976562 15.242188 -15.273438 15.828125 -14.359375 C 16.421875 -13.441406 16.71875 -12.351562 16.71875 -11.09375 C 16.71875 -9.84375 16.421875 -8.753906 15.828125 -7.828125 C 15.242188 -6.898438 14.398438 -6.191406 13.296875 -5.703125 C 12.191406 -5.210938 10.890625 -4.96875 9.390625 -4.96875 L 5.515625 -4.96875 L 5.515625 0 L 2.3125 0 L 2.3125 -17.21875 Z M 9.25 -7.671875 C 10.644531 -7.671875 11.703125 -7.960938 12.421875 -8.546875 C 13.140625 -9.140625 13.5 -9.988281 13.5 -11.09375 C 13.5 -12.1875 13.140625 -13.03125 12.421875 -13.625 C 11.703125 -14.21875 10.644531 -14.515625 9.25 -14.515625 L 5.515625 -14.515625 L 5.515625 -7.671875 Z M 9.25 -7.671875" transform="translate(146.519395, 239.073998)"/></g></g></g><g fill="#041630" fill-opacity="1"><g><g><path d="M 7.65625 0.25 C 6.320312 0.25 5.035156 0.0625 3.796875 -0.3125 C 2.554688 -0.695312 1.578125 -1.195312 0.859375 -1.8125 L 1.96875 -4.296875 C 2.675781 -3.742188 3.539062 -3.289062 4.5625 -2.9375 C 5.582031 -2.582031 6.613281 -2.40625 7.65625 -2.40625 C 8.925781 -2.40625 9.875 -2.609375 10.5 -3.015625 C 11.132812 -3.429688 11.453125 -3.972656 11.453125 -4.640625 C 11.453125 -5.140625 11.273438 -5.546875 10.921875 -5.859375 C 10.578125 -6.179688 10.132812 -6.429688 9.59375 -6.609375 C 9.050781 -6.796875 8.3125 -7.003906 7.375 -7.234375 C 6.0625 -7.546875 5 -7.851562 4.1875 -8.15625 C 3.375 -8.46875 2.675781 -8.957031 2.09375 -9.625 C 1.519531 -10.289062 1.234375 -11.191406 1.234375 -12.328125 C 1.234375 -13.273438 1.488281 -14.132812 2 -14.90625 C 2.519531 -15.6875 3.300781 -16.304688 4.34375 -16.765625 C 5.382812 -17.234375 6.660156 -17.46875 8.171875 -17.46875 C 9.210938 -17.46875 10.238281 -17.332031 11.25 -17.0625 C 12.269531 -16.800781 13.148438 -16.425781 13.890625 -15.9375 L 12.890625 -13.453125 C 12.128906 -13.890625 11.335938 -14.222656 10.515625 -14.453125 C 9.703125 -14.691406 8.910156 -14.8125 8.140625 -14.8125 C 6.878906 -14.8125 5.941406 -14.597656 5.328125 -14.171875 C 4.710938 -13.742188 4.40625 -13.175781 4.40625 -12.46875 C 4.40625 -11.976562 4.578125 -11.578125 4.921875 -11.265625 C 5.273438 -10.953125 5.722656 -10.703125 6.265625 -10.515625 C 6.804688 -10.335938 7.546875 -10.132812 8.484375 -9.90625 C 9.765625 -9.613281 10.8125 -9.304688 11.625 -8.984375 C 12.445312 -8.671875 13.148438 -8.1875 13.734375 -7.53125 C 14.316406 -6.875 14.609375 -5.988281 14.609375 -4.875 C 14.609375 -3.914062 14.347656 -3.050781 13.828125 -2.28125 C 13.316406 -1.507812 12.535156 -0.894531 11.484375 -0.4375 C 10.429688 0.0195312 9.15625 0.25 7.65625 0.25 Z M 7.65625 0.25" transform="translate(174.452609, 239.073998)"/></g></g></g><g fill="#041630" fill-opacity="1"><g><g><path d="M 5.796875 -14.515625 L 0.09375 -14.515625 L 0.09375 -17.21875 L 14.703125 -17.21875 L 14.703125 -14.515625 L 9 -14.515625 L 9 0 L 5.796875 0 Z M 5.796875 -14.515625" transform="translate(191.566548, 239.073998)"/></g></g></g><g fill="#041630" fill-opacity="1"><g><g><path d="M 9.71875 0.25 C 7.34375 0.25 5.488281 -0.414062 4.15625 -1.75 C 2.832031 -3.09375 2.171875 -5.007812 2.171875 -7.5 L 2.171875 -17.21875 L 5.359375 -17.21875 L 5.359375 -7.625 C 5.359375 -4.25 6.816406 -2.5625 9.734375 -2.5625 C 12.640625 -2.5625 14.09375 -4.25 14.09375 -7.625 L 14.09375 -17.21875 L 17.234375 -17.21875 L 17.234375 -7.5 C 17.234375 -5.007812 16.570312 -3.09375 15.25 -1.75 C 13.9375 -0.414062 12.09375 0.25 9.71875 0.25 Z M 9.71875 0.25" transform="translate(208.016599, 239.073998)"/></g></g></g><g fill="#041630" fill-opacity="1"><g><g><path d="M 2.3125 -17.21875 L 9.84375 -17.21875 C 11.675781 -17.21875 13.304688 -16.859375 14.734375 -16.140625 C 16.160156 -15.429688 17.265625 -14.425781 18.046875 -13.125 C 18.835938 -11.820312 19.234375 -10.316406 19.234375 -8.609375 C 19.234375 -6.898438 18.835938 -5.394531 18.046875 -4.09375 C 17.265625 -2.789062 16.160156 -1.78125 14.734375 -1.0625 C 13.304688 -0.351562 11.675781 0 9.84375 0 L 2.3125 0 Z M 9.6875 -2.703125 C 10.945312 -2.703125 12.054688 -2.941406 13.015625 -3.421875 C 13.984375 -3.910156 14.722656 -4.601562 15.234375 -5.5 C 15.753906 -6.394531 16.015625 -7.429688 16.015625 -8.609375 C 16.015625 -9.785156 15.753906 -10.820312 15.234375 -11.71875 C 14.722656 -12.613281 13.984375 -13.300781 13.015625 -13.78125 C 12.054688 -14.269531 10.945312 -14.515625 9.6875 -14.515625 L 5.515625 -14.515625 L 5.515625 -2.703125 Z M 9.6875 -2.703125" transform="translate(229.064717, 239.073998)"/></g></g></g><g fill="#041630" fill-opacity="1"><g><g><path d="M 9.734375 -6.078125 L 9.734375 0 L 6.546875 0 L 6.546875 -6.03125 L -0.21875 -17.21875 L 3.203125 -17.21875 L 8.234375 -8.828125 L 13.328125 -17.21875 L 16.484375 -17.21875 Z M 9.734375 -6.078125" transform="translate(251.022617, 239.073998)"/></g></g></g><g fill="#041630" fill-opacity="1"><g><g><path d="M 4.65625 -8.4375 C 5.394531 -8.4375 6.039062 -8.3125 6.59375 -8.0625 C 7.144531 -7.8125 7.566406 -7.457031 7.859375 -7 C 8.160156 -6.539062 8.3125 -6 8.3125 -5.375 C 8.3125 -4.75 8.160156 -4.207031 7.859375 -3.75 C 7.566406 -3.289062 7.144531 -2.9375 6.59375 -2.6875 C 6.039062 -2.445312 5.394531 -2.328125 4.65625 -2.328125 L 2.953125 -2.328125 L 2.953125 0 L 1 0 L 1 -8.4375 Z M 4.546875 -3.921875 C 5.128906 -3.921875 5.570312 -4.046875 5.875 -4.296875 C 6.1875 -4.546875 6.34375 -4.90625 6.34375 -5.375 C 6.34375 -5.84375 6.1875 -6.203125 5.875 -6.453125 C 5.570312 -6.710938 5.128906 -6.84375 4.546875 -6.84375 L 2.953125 -6.84375 L 2.953125 -3.921875 Z M 4.546875 -3.921875" transform="translate(132.887282, 255.207596)"/></g></g></g><g fill="#041630" fill-opacity="1"><g><g><path d="M 1 -8.4375 L 2.953125 -8.4375 L 2.953125 -1.59375 L 7.1875 -1.59375 L 7.1875 0 L 1 0 Z M 1 -8.4375" transform="translate(147.168361, 255.207596)"/></g></g></g><g fill="#041630" fill-opacity="1"><g><g><path d="M 6.546875 -1.8125 L 2.640625 -1.8125 L 1.890625 0 L -0.109375 0 L 3.65625 -8.4375 L 5.578125 -8.4375 L 9.34375 0 L 7.296875 0 Z M 5.9375 -3.28125 L 4.609375 -6.515625 L 3.265625 -3.28125 Z M 5.9375 -3.28125" transform="translate(159.908457, 255.207596)"/></g></g></g><g fill="#041630" fill-opacity="1"><g><g><path d="M 2.75 -6.84375 L 0.046875 -6.84375 L 0.046875 -8.4375 L 7.390625 -8.4375 L 7.390625 -6.84375 L 4.703125 -6.84375 L 4.703125 0 L 2.75 0 Z M 2.75 -6.84375" transform="translate(174.598858, 255.207596)"/></g></g></g><g fill="#041630" fill-opacity="1"><g><g><path d="M 2.953125 -6.859375 L 2.953125 -4.640625 L 6.859375 -4.640625 L 6.859375 -3.078125 L 2.953125 -3.078125 L 2.953125 0 L 1 0 L 1 -8.4375 L 7.375 -8.4375 L 7.375 -6.859375 Z M 2.953125 -6.859375" transform="translate(187.507501, 255.207596)"/></g></g></g><g fill="#041630" fill-opacity="1"><g><g><path d="M 5.078125 0.140625 C 4.203125 0.140625 3.410156 -0.046875 2.703125 -0.421875 C 2.003906 -0.796875 1.457031 -1.3125 1.0625 -1.96875 C 0.664062 -2.632812 0.46875 -3.382812 0.46875 -4.21875 C 0.46875 -5.039062 0.664062 -5.78125 1.0625 -6.4375 C 1.457031 -7.101562 2.003906 -7.625 2.703125 -8 C 3.410156 -8.382812 4.203125 -8.578125 5.078125 -8.578125 C 5.953125 -8.578125 6.738281 -8.382812 7.4375 -8 C 8.144531 -7.625 8.695312 -7.101562 9.09375 -6.4375 C 9.5 -5.78125 9.703125 -5.039062 9.703125 -4.21875 C 9.703125 -3.382812 9.5 -2.632812 9.09375 -1.96875 C 8.695312 -1.3125 8.144531 -0.796875 7.4375 -0.421875 C 6.738281 -0.046875 5.953125 0.140625 5.078125 0.140625 Z M 5.078125 -1.515625 C 5.578125 -1.515625 6.023438 -1.628906 6.421875 -1.859375 C 6.828125 -2.085938 7.144531 -2.40625 7.375 -2.8125 C 7.601562 -3.226562 7.71875 -3.695312 7.71875 -4.21875 C 7.71875 -4.738281 7.601562 -5.203125 7.375 -5.609375 C 7.144531 -6.023438 6.828125 -6.347656 6.421875 -6.578125 C 6.023438 -6.804688 5.578125 -6.921875 5.078125 -6.921875 C 4.585938 -6.921875 4.140625 -6.804688 3.734375 -6.578125 C 3.328125 -6.347656 3.007812 -6.023438 2.78125 -5.609375 C 2.5625 -5.203125 2.453125 -4.738281 2.453125 -4.21875 C 2.453125 -3.695312 2.5625 -3.226562 2.78125 -2.8125 C 3.007812 -2.40625 3.328125 -2.085938 3.734375 -1.859375 C 4.140625 -1.628906 4.585938 -1.515625 5.078125 -1.515625 Z M 5.078125 -1.515625" transform="translate(200.668954, 255.207596)"/></g></g></g><g fill="#041630" fill-opacity="1"><g><g><path d="M 6.375 0 L 4.75 -2.34375 L 2.953125 -2.34375 L 2.953125 0 L 1 0 L 1 -8.4375 L 4.65625 -8.4375 C 5.394531 -8.4375 6.039062 -8.3125 6.59375 -8.0625 C 7.144531 -7.8125 7.566406 -7.457031 7.859375 -7 C 8.160156 -6.539062 8.3125 -6 8.3125 -5.375 C 8.3125 -4.75 8.160156 -4.207031 7.859375 -3.75 C 7.554688 -3.300781 7.128906 -2.953125 6.578125 -2.703125 L 8.46875 0 Z M 6.34375 -5.375 C 6.34375 -5.84375 6.1875 -6.203125 5.875 -6.453125 C 5.570312 -6.710938 5.128906 -6.84375 4.546875 -6.84375 L 2.953125 -6.84375 L 2.953125 -3.90625 L 4.546875 -3.90625 C 5.128906 -3.90625 5.570312 -4.03125 5.875 -4.28125 C 6.1875 -4.539062 6.34375 -4.90625 6.34375 -5.375 Z M 6.34375 -5.375" transform="translate(216.29839, 255.207596)"/></g></g></g><g fill="#041630" fill-opacity="1"><g><g><path d="M 8.671875 0 L 8.65625 -5.0625 L 6.1875 -0.890625 L 5.296875 -0.890625 L 2.828125 -4.953125 L 2.828125 0 L 1 0 L 1 -8.4375 L 2.609375 -8.4375 L 5.765625 -3.1875 L 8.875 -8.4375 L 10.484375 -8.4375 L 10.5 0 Z M 8.671875 0" transform="translate(230.615581, 255.207596)"/></g></g></g></svg>